/* XPM */
static char *c5c67aafb785496fa9a945aea76c4c13pkMxJLgYBxBWFk8a[] = {
/* columns rows colors chars-per-pixel */
"64 64 135 2 ",
"   c None",
".  c #392420",
"X  c #3A2420",
"o  c #3A2421",
"O  c #3A2521",
"+  c #3B2521",
"@  c #3D2622",
"#  c #3D2623",
"$  c #3D2723",
"%  c #3E2723",
"&  c #3F2723",
"*  c #3F2824",
"=  c #4B2E1E",
"-  c #4E301F",
";  c #402824",
":  c #412925",
">  c #402A25",
",  c #412A25",
"<  c #422A25",
"1  c #432A26",
"2  c #432B26",
"3  c #442B27",
"4  c #442C27",
"5  c #452C27",
"6  c #402E2B",
"7  c #462D28",
"8  c #492F2A",
"9  c #4F3120",
"0  c #44302D",
"q  c #45312D",
"w  c #47322F",
"e  c #4D332D",
"r  c #4E342E",
"t  c #4F352F",
"y  c #553624",
"u  c #50362F",
"i  c #513630",
"p  c #5B3E36",
"a  c #5D4037",
"s  c #5D443D",
"d  c #5F463E",
"f  c #6A493E",
"g  c #6A4A3F",
"h  c #4A4844",
"j  c #4E4B47",
"k  c #4E4B48",
"l  c #4F4C48",
"z  c #514E4B",
"x  c #55524E",
"c  c #55524F",
"v  c #595652",
"b  c #5A5652",
"n  c #5A5753",
"m  c #5B5855",
"M  c #5B5955",
"N  c #6B4B40",
"B  c #6D4C41",
"V  c #6E4D42",
"C  c #6F4D42",
"Z  c #765246",
"A  c #765346",
"S  c #795548",
"D  c #7A5548",
"F  c #7A5649",
"G  c #626060",
"H  c #646261",
"J  c #646262",
"K  c #696665",
"L  c #6A6665",
"P  c #686969",
"I  c DimGray",
"U  c #696A6A",
"Y  c #6A6B6B",
"T  c #DF5B00",
"R  c #E15B00",
"E  c #E15C00",
"W  c #E25C00",
"Q  c #E75D00",
"!  c #E75E00",
"~  c #E95E00",
"^  c #EB5F00",
"/  c #ED5F00",
"(  c #ED6100",
")  c #EF6000",
"_  c #EF6100",
"`  c #F16000",
"'  c #F16200",
"]  c #F56200",
"[  c #F56300",
"{  c #F66200",
"}  c #F06600",
"|  c #F16700",
" . c #F36700",
".. c #F66400",
"X. c #F66700",
"o. c #F96400",
"O. c #F86500",
"+. c #F96500",
"@. c #FF6500",
"#. c #FF6600",
"$. c #FF6700",
"%. c #F76800",
"&. c #FF6A00",
"*. c #FF6B00",
"=. c #FF6C00",
"-. c #825840",
";. c #855B42",
":. c #855E42",
">. c #F18B00",
",. c #F08E00",
"<. c #FE8F00",
"1. c #F29000",
"2. c #FE9000",
"3. c #FF9100",
"4. c #FF9200",
"5. c #FF9300",
"6. c #FF9400",
"7. c #FF9500",
"8. c #FF9600",
"9. c #FF9700",
"0. c #FF9800",
"q. c #FF9801",
"w. c #FF9901",
"e. c #FF9A01",
"r. c #FF9C01",
"t. c #FFBB06",
"y. c #FFBD06",
"u. c #FFBE06",
"i. c #FFBF06",
"p. c #FFBE07",
"a. c #FFBF07",
"s. c #FFC107",
"d. c #FFC206",
"f. c #FFC306",
"g. c #FFC207",
/* pixels */
"                                                                                                                                ",
"                                                                                                                                ",
"                                                                                                                                ",
"                                                                                                                                ",
"                                                                                                                                ",
"                                                                                                                                ",
"                                                                                                                                ",
"                                                                                                                                ",
"                                                                                                                                ",
"                                                                                                                                ",
"                                                            W +.                                                                ",
"                                                            ! $.                                                                ",
"                                                            ! $.+.+.                                                            ",
"                                                            ! $.$.$.                                                            ",
"                                                        W { 2.6.6.6.%.[                                                         ",
"                                                        ~ $.2.6.6.6.*.$.                                                        ",
"                                                    W { 2.2.6.6.6.6.6.6.%.[                                                     ",
"                                                    ~ $.2.6.6.6.6.6.6.6.*.$.                                                    ",
"                                                    ~ $.2.6.6.6.6.6.6.6.*.$.                                                    ",
"                                                    ~ $.2.6.6.6.6.6.6.6.*.$.                                                    ",
"                                                R ` <.2.6.6.6.6.6.6.6.6.2.6.} `                                                 ",
"                                                / $.2.6.6.6.6.6.6.6.6.6.6.6.*.$.                                                ",
"                                            R _ 2.6.6.6.6.6.6.6.t.p.q.6.6.6.2.2.} _                                             ",
"                                            _ $.2.6.6.6.6.6.6.6.p.s.q.6.6.6.6.6.*.$.                                            ",
"                                            _ $.2.6.6.6.6.6.t.p.s.s.p.p.q.6.6.6.2.2.} _                                         ",
"                                            _ $.2.6.6.6.6.6.p.s.s.s.s.s.q.6.6.6.6.6.=.$.                                        ",
"                                        T ~ <.2.6.6.6.6.t.p.s.s.s.s.s.s.p.p.q.6.6.6.=.$.                                        ",
"                                        ` $.2.6.6.6.6.6.p.s.s.s.s.s.s.s.s.s.q.6.6.6.*.$.                                        ",
"                                        >.2.6.6.6.6.t.p.s.s.s.s.s.s.s.s.r.q.6.6.6.6.2.2.                                        ",
"                                        1.6.6.6.6.6.p.s.s.s.s.s.s.s.s.s.q.6.6.6.6.6.6.q.                                        ",
"                                            ,.6.6.6.q.q.p.s.s.s.s.s.s.s.q.6.6.6.6.6.                                            ",
"                                            ,.6.6.6.6.6.p.s.s.s.s.s.s.f.q.6.6.6.6.q.                                            ",
"                                            = - -.;.;.;.:.:.:.:.:.:.:.:.;.;.;.;.y 9                                             ",
"                                            . % Z S S S S S S S S S S S S S S S 5 %                                             ",
"                                            . % Z S S S S S S S S S S S S S S S 5 %                                             ",
"                                            . % Z S S S S S S S S S S S S S S S 7 *                                             ",
"                                                : : N B B B B B B B B B B B 8 5                                                 ",
"                                                . % g B B B B B B B B B B B : %                                                 ",
"                                                . % g B B B B B B B B B B B : %                                                 ",
"                                                . % g B B B B B B B B B B B : %                                                 ",
"                                                . % g B B B B B B B B B B B : %                                                 ",
"                                                . % g B B B B B B B B B B B : %                                                 ",
"                                        h k k j G H L L L L L L L L L L L L H H z k k l                                         ",
"                                        x v v v U U U U U U U U U U U U U U U U m v v v                                         ",
"                                        x v v v U U U U U U U U U U U U U U U U m v v v                                         ",
"                                        x v v v U U U U U U U U U U U U U U U U m v v v                                         ",
"                                                    6 0 d d d d d d d d 0 0                                                     ",
"                                                    . % p a a a a a a a : %                                                     ",
"                                                    . % p a a a a a a a : %                                                     ",
"                                                    . % p a a a a a a a : %                                                     ",
"                                                    . % p a a a a a a a : %                                                     ",
"                                                    . % p a a a a a a a : *                                                     ",
"                                                        * : r u u i 5 3                                                         ",
"                                                        . % e r r r : %                                                         ",
"                                                        . % e r r r : %                                                         ",
"                                                        . % e r r r : %                                                         ",
"                                                        . % e r r r : %                                                         ",
"                                                        . % e r r r : %                                                         ",
"                                                            % : : :                                                             ",
"                                                            . % % %                                                             ",
"                                                                                                                                ",
"                                                                                                                                ",
"                                                                                                                                ",
"                                                                                                                                "
};
