/* XPM */
static char *ed20792f7e3f4e3ffb6cc72d9393343eZzZ1D0du2AQZWLRn[] = {
/* columns rows colors chars-per-pixel */
"64 64 135 2 ",
"   c None",
".  c #392420",
"X  c #3A2420",
"o  c #3A2421",
"O  c #3A2521",
"+  c #3B2521",
"@  c #3D2622",
"#  c #3D2623",
"$  c #3D2723",
"%  c #3E2723",
"&  c #3F2723",
"*  c #3F2824",
"=  c #4B2E1E",
"-  c #4E301F",
";  c #402824",
":  c #412925",
">  c #402A25",
",  c #412A25",
"<  c #422A25",
"1  c #432A26",
"2  c #432B26",
"3  c #442B27",
"4  c #442C27",
"5  c #452C27",
"6  c #402E2B",
"7  c #462D28",
"8  c #492F2A",
"9  c #4F3120",
"0  c #44302D",
"q  c #45312D",
"w  c #47322F",
"e  c #4D332D",
"r  c #4E342E",
"t  c #4F352F",
"y  c #553624",
"u  c #50362F",
"i  c #513630",
"p  c #5B3E36",
"a  c #5D4037",
"s  c #5D443D",
"d  c #5F463E",
"f  c #6A493E",
"g  c #6A4A3F",
"h  c #4A4844",
"j  c #4E4B47",
"k  c #4E4B48",
"l  c #4F4C48",
"z  c #514E4B",
"x  c #55524E",
"c  c #55524F",
"v  c #595652",
"b  c #5A5652",
"n  c #5A5753",
"m  c #5B5855",
"M  c #5B5955",
"N  c #6B4B40",
"B  c #6D4C41",
"V  c #6E4D42",
"C  c #6F4D42",
"Z  c #765246",
"A  c #765346",
"S  c #795548",
"D  c #7A5548",
"F  c #7A5649",
"G  c #626060",
"H  c #646261",
"J  c #646262",
"K  c #696665",
"L  c #6A6665",
"P  c #686969",
"I  c DimGray",
"U  c #696A6A",
"Y  c #6A6B6B",
"T  c #E15B00",
"R  c #E25C00",
"E  c #E35C00",
"W  c #E45D00",
"Q  c #E95E00",
"!  c #E95F00",
"~  c #EB5F00",
"^  c #ED5F00",
"/  c #ED6000",
"(  c #ED6100",
")  c #EF6000",
"_  c #EF6100",
"`  c #F16000",
"'  c #F16100",
"]  c #F36100",
"[  c #F16200",
"{  c #F36300",
"}  c #F56300",
"|  c #F66200",
" . c #F76300",
".. c #F06600",
"X. c #F16700",
"o. c #F36700",
"O. c #F66400",
"+. c #F46700",
"@. c #F66700",
"#. c #F86400",
"$. c #F86500",
"%. c #F96500",
"&. c #FF6500",
"*. c #FF6600",
"=. c #FF6700",
"-. c #FF6900",
";. c #FF6A00",
":. c #FF6B00",
">. c #825840",
",. c #855B42",
"<. c #855E42",
"1. c #F18B00",
"2. c #F08E00",
"3. c #F29000",
"4. c #FE9000",
"5. c #FF9200",
"6. c #FF9300",
"7. c #FF9400",
"8. c #FF9500",
"9. c #FF9600",
"0. c #FF9700",
"q. c #FF9800",
"w. c #FF9801",
"e. c #FF9901",
"r. c #FF9A01",
"t. c #FF9C01",
"y. c #FFBB06",
"u. c #FFBC06",
"i. c #FFBE06",
"p. c #FFBF06",
"a. c #FFBF07",
"s. c #FFC107",
"d. c #FFC206",
"f. c #FFC306",
"g. c #FFC207",
/* pixels */
"                                                                                                                                ",
"                                                                                                                                ",
"                                                                                                                                ",
"                                                                                                                                ",
"                                                                                                                                ",
"                                                                                                                                ",
"                                                                                                                                ",
"                                                                                                                                ",
"                                                                                                                                ",
"                                                                                                                                ",
"                                                        W %.                                                                    ",
"                                                        ! =.                                                                    ",
"                                                        ! =.%.%.                                                                ",
"                                                        ! =.=.=.                                                                ",
"                                                    E | 4.9.;.=.| @.                                                            ",
"                                                    ! =.4.9.;.=.=.=.                                                            ",
"                                                    ! =.4.9.4.4.4.9.@.|                                                         ",
"                                                    ! =.4.9.9.9.9.9.;.=.                                                        ",
"                                                E ] 4.4.9.9.9.9.9.9.4.9.@.]                                                     ",
"                                                ) =.4.9.9.9.9.9.9.9.9.9.;.=.                                                    ",
"                                                ) =.4.9.9.9.u.u.w.9.9.9.4.4...]                                                 ",
"                                                ^ =.4.9.9.9.u.g.w.9.9.9.9.9.;.=.                                                ",
"                                            T ) 4.4.9.9.y.u.g.g.u.u.w.9.9.9.4.4...)                                             ",
"                                            ) =.4.9.9.9.u.g.g.g.g.g.w.9.9.9.9.9.;.=.                                            ",
"                                        T ^ 4.4.9.9.9.9.u.g.g.g.g.g.u.u.w.9.9.9.4.4...)                                         ",
"                                        ] =.4.9.9.9.9.9.u.g.g.g.g.g.g.g.w.9.9.9.9.9.;.=.                                        ",
"                                        ] =.4.9.9.9.y.u.g.g.g.g.g.g.g.g.w.9.9.9.9.9.4.4.                                        ",
"                                        ] =.4.9.9.9.u.g.g.g.g.g.g.g.g.g.w.9.9.9.9.9.9.9.                                        ",
"                                        1.4.9.9.9.9.u.g.g.g.g.g.g.g.g.g.w.9.9.9.9.9.9.9.                                        ",
"                                        3.9.9.9.9.9.u.g.g.g.g.g.g.g.g.g.w.9.9.9.9.9.9.w.                                        ",
"                                            2.9.9.9.w.w.u.g.g.g.g.g.t.w.9.9.9.9.9.9.                                            ",
"                                            2.9.9.9.9.9.u.g.g.g.g.g.w.9.9.9.9.9.9.w.                                            ",
"                                            = - >.,.,.,.<.<.<.<.<.<.,.,.,.,.,.,.y 9                                             ",
"                                            . % Z S S S S S S S S S S S S S S S 5 %                                             ",
"                                            . % Z S S S S S S S S S S S S S S S 5 %                                             ",
"                                            . % Z S S S S S S S S S S S S S S S 7 *                                             ",
"                                                : : N B B B B B B B B B B B 8 5                                                 ",
"                                                . % g B B B B B B B B B B B : %                                                 ",
"                                                . % g B B B B B B B B B B B : %                                                 ",
"                                                . % g B B B B B B B B B B B : %                                                 ",
"                                                . % g B B B B B B B B B B B : %                                                 ",
"                                                . % g B B B B B B B B B B B : %                                                 ",
"                                        h k k j G H L L L L L L L L L L L L H H z k k l                                         ",
"                                        x v v v U U U U U U U U U U U U U U U U m v v v                                         ",
"                                        x v v v U U U U U U U U U U U U U U U U m v v v                                         ",
"                                        x v v v U U U U U U U U U U U U U U U U m v v v                                         ",
"                                                    6 0 d d d d d d d d 0 0                                                     ",
"                                                    . % p a a a a a a a : %                                                     ",
"                                                    . % p a a a a a a a : %                                                     ",
"                                                    . % p a a a a a a a : %                                                     ",
"                                                    . % p a a a a a a a : %                                                     ",
"                                                    . % p a a a a a a a : *                                                     ",
"                                                        * : r u u i 5 3                                                         ",
"                                                        . % e r r r : %                                                         ",
"                                                        . % e r r r : %                                                         ",
"                                                        . % e r r r : %                                                         ",
"                                                        . % e r r r : %                                                         ",
"                                                        . % e r r r : %                                                         ",
"                                                            % : : :                                                             ",
"                                                            . % % %                                                             ",
"                                                                                                                                ",
"                                                                                                                                ",
"                                                                                                                                ",
"                                                                                                                                "
};
