/* XPM */
static char *f90548dca9de4a718e036d65141911eftwZYffeE9vSWndN4[] = {
/* columns rows colors chars-per-pixel */
"64 64 139 2 ",
"   c #7F7FFE",
".  c #7F80FE",
"X  c #807FFE",
"o  c #7E7FFE",
"O  c #7E80FE",
"+  c #7F7DFE",
"@  c #7F7EFE",
"#  c #8080FE",
"$  c #807EFE",
"%  c #7E7EFE",
"&  c #7F81FE",
"*  c #7D80FE",
"=  c #8180FE",
"-  c #8080FD",
";  c #7E80FD",
":  c #7F7FFD",
">  c #7E7FFD",
",  c #807FFD",
"<  c #7E7DFD",
"1  c #7F80FD",
"2  c #7E81FD",
"3  c #7F81FD",
"4  c #8081FD",
"5  c #7F7EFD",
"6  c #7D81FD",
"7  c #8181FD",
"8  c #7E82FD",
"9  c #817DFD",
"0  c #7C81FD",
"q  c #8181FE",
"w  c #7E7EFD",
"e  c #807DFD",
"r  c #807EFC",
"t  c #7D7DFE",
"y  c #7D7FFD",
"u  c #807EFD",
"i  c #7D81FE",
"p  c #8282FD",
"a  c #7F82FD",
"s  c #7F7DFD",
"d  c #7F7EFC",
"f  c #7F7FFC",
"g  c #7D82FD",
"h  c #8081FE",
"j  c #817FFD",
"k  c #7D7EFD",
"l  c #7E81FE",
"z  c #7F80FC",
"x  c #817FFE",
"c  c #7D7CFC",
"v  c #817CFD",
"b  c #8180FD",
"n  c #7D80FD",
"m  c #807CFD",
"M  c #817EFD",
"N  c #827FFD",
"B  c #7D7FFE",
"V  c #7E7DFE",
"C  c #827DFD",
"Z  c #8082FD",
"A  c #8182FD",
"S  c #807DFE",
"D  c #7D7DFD",
"F  c #817EFE",
"G  c #7D7EFE",
"H  c #7E81FC",
"J  c #7B81FB",
"K  c #8181FC",
"L  c #8082FC",
"P  c #7C82FC",
"I  c #7D82FC",
"U  c #827CFC",
"Y  c #7E7CFB",
"T  c #827EFE",
"R  c #8280FD",
"E  c #7B81FD",
"W  c #7F82FC",
"Q  c #7D81FC",
"!  c #817DFC",
"~  c #827EFC",
"^  c #7D7FFC",
"/  c #7F7DFC",
"(  c #7C7EFD",
")  c #817EFC",
"_  c #7F81FC",
"`  c #8281FC",
"'  c #807FFC",
"]  c #7D7FFB",
"[  c #7E7FFB",
"{  c #827DFC",
"}  c #7E7EFC",
"|  c #837DFD",
" . c #7E82FC",
".. c #8183FC",
"X. c #7D7EFA",
"o. c #7E7DFC",
"O. c #7B7DFD",
"+. c #807BFC",
"@. c #807CFC",
"#. c #8280FC",
"$. c #7D80FC",
"%. c #7F83FD",
"&. c #7B7EFD",
"*. c #7D81FB",
"=. c #827FFC",
"-. c #837EFC",
";. c #817DFE",
":. c #7C7EFB",
">. c #8081FC",
",. c #817CFC",
"<. c #7D7AFC",
"1. c #7E7BFC",
"2. c #7E7CFC",
"3. c #7D7DFC",
"4. c #7F7CFC",
"5. c #7E7FFC",
"6. c #7D7EFC",
"7. c #827CFD",
"8. c #817FFC",
"9. c #7E80FB",
"0. c #7D7EFB",
"q. c #8282FC",
"w. c #8180FC",
"e. c #7C7EFC",
"r. c #827EFD",
"t. c #7C80FC",
"y. c #8183FB",
"u. c #7B81FC",
"i. c #8080FC",
"p. c #7A7FFC",
"a. c #8083FC",
"s. c #8080FB",
"d. c #7C7DFD",
"f. c #7E7BFB",
"g. c #7F7EFB",
"h. c #7D7BFC",
"j. c #807DFC",
"k. c #7E7CFD",
"l. c white",
/* pixels */
"                . . X   . o   X                                 X O + @ # @   X   O X o                 . . $                   ",
"X                   X o   o   X o                           X       X %   O X X   o X o       X           @ X                 X ",
"X             o & X .   X o   X                             X       . .   * = # . O #                                           ",
"X             o $ X .   # O X                             X   . . & . # O O X # #   X                                           ",
"              @ $ o         X X                             . . o . - - O o X @ X   .     X                           o         ",
"          X   @     @ % X o X X       o                         ; ; - : > : X # # .   ,   X                                   X ",
"            X             o X X                               o > < X . 1 @   $ $ @ $ @ @   X                   o . #       X   ",
"X         X X         O & . X . #       . . . 2 3 1 . .       .     % @ $ o $ $   $       X                       > =       X   ",
"X       X   X o   1 . * 1 4 - : #       o O ; 1 X   . X   .   o   X @ 5 X @ X # X X   O #     . .         .     o 6 7 #         ",
"X         X X O 8 8 - ; : 9 , 1   #   O ; * 1 1 # . 1 = . O #     X X @ : X   X X   O 1   #     @     X o     . 0 1 . q     . . ",
"q .     . # & ; w e , 5 r > 2 - # . # o   t @ 5 $ y - ,   o   . . . = O 2 #   X   O ; u   X X               . i 6 :   = =     # ",
"p 4 a 3 . X   @ + s s > d f w , -   $     O ; u X % w - . . o 1 #   # 1 $ : X   . * # # . X X   X   o   O 2 2 g , u O # q h & . ",
"1 - o - - j   X $   % k u : : 5 e $   . ; o $ $ o > 6 - : , i ; j X @ @ X   # . . l . 7 . # . 1 - .   2 2 z 6 u u O O # # # # O ",
". 7 : 5 - x $   #     % + % > # #   O : @ + $ o 1 5 c v + % w v @ X         X . O o . 4 4 h # $ 5 : g 8 3 8 u 9 % @ o   X . h l ",
"@ . 7 ; b x X o . # .   O l O   # q           o @   : @ $ % % $ o X   @         O O O . , , - b # 6 n > 5 m M . O & O X X . O . ",
"O   X . N x X o   X # . B @ @ 5 % x #                 X     @   o X       :   O : 5 < 5 x e 5 , 2 u V w M   . . O     X   : o # ",
"  $ @ u C $ X % @ X   X @ %   @ % $ : . . & 8 Z #   X           o         o     X w $ V u X ; z u . * o X O . . @   @     $ k @ ",
"o # . b 7 A =   %     X   % @   o X O O 6 a : u j ,     X                   @ @ X   X   w : 5 @ X % %     O   X       $ S : y @ ",
"%     X . j b #     X       O .     o w k @ , , - X   @                       . X @ X   O - 1 h   O   % % %   X , s 5 : .   @   ",
"@ % @ $ e j u ,   O X X       @ @ @ o > < V M s 5 - & #             X           X     . % $ w . q O # X % % e e : 3 : $ @ @ o   ",
"X o X , - 1 b - # % $   O # .     . o $ o w $ $ @ @ $ $       .     X   o             X       D X @ : # O . 1 1 o X . #     o o ",
"#     X , , , 1 7 & # .   % # . & .     O #   X                   X         .       @   X @ . : 5   o X @ @ : ; . .   # #   . o ",
"X $ @ u : 5 1 . X # 4 4 & l #   o . # O . > # . .                 #       o X       .     O 6 4 - % % X : O O     X     # .   % ",
"9 X   O h - O # # X ; , 3 . # . O   . * # . # . # . . X             X   O   X     O O X . * o . b 1 . X % o o X   . & #   X $ % ",
"X O   w u u : $ 5 : 5 u < e 5         % @ 5 > 1 # . # # . .                 X   X o $   O o o % F : : q . > o X @ % @ X X # #   ",
"o   X o u   $ e + m s u + @ % @ % o . # : l : 5 X # X X .                   @         o @ %   @ F w 5 5   : s % X G   X X     # ",
"o   X O h 1 j X . & 2 b #   o   > > 5   , < ,   @ @ # # . X             . X   . X   .   @ % @ @ # 1 $ w > u   G x o %   $   X   ",
"  o . : $ X # - y 1 , u   & o   @ V + V $ o 5 X     X $ $             O $ X O . X O . # .       % # X @ < u o o   O 1 - X   X   ",
"  % $   @ $   =   y 4 4 2 - 1 # .     o   o         X X             o @ $ O     # l # X . . . . #   . q o 5 G . .   % , # # . # ",
"#       $   o x   G @ $   $     X . .         @ @   $ $         X X   @     @ @   o $ X     o o # $ % X #   B % @ @ @ $ % $ @ X ",
"$     $ X   @ $   o           X   . .       X       X           X   X         o o   X     . O ; j . .   X     % @ @ % $ @ $   @ ",
"X             X               #   . .                           X X             o $   X B     u $ @ X                 X @     @ ",
"X                     . #       . n 7 h #                       X X       1 .     X   . O     1 #   . X         o             X ",
"X                             X o %   # # X . 1     .           X X   O 2 2 q .     . . 6 Z 3 1 j   X $         o             X ",
"X   .   X   . . . .   @ @ o . # O *   X # # . # .   . . . .     X X . 0 . $ : 4 a . . 6 H , 1 b - # X X         .               ",
"X o X X O & .   X $     . o   X O   @ .     o # #               . h 8 5 S @ o @ 5 j > J 3 K 8 b 4 j x       . > :               ",
"      O   $     $         % %     . 2 ; 7 3 1 X #     @         w S + $   O g b ; L P I U Y : j u T X . .                       ",
"        $     X $           % @ o > ; 2 - , $ o X X . .       o X         n n R E W Q ! ~ ^ / , j x   @ @             X         ",
"  :   $ X   @   X     O .   o   o % D e S x X   $ X           @ :         ( w z 6 : ) _ ` Q ' e 9 , X   o       . . X X 1 #     ",
"2 , $ X             O O   . .   % $ V + + $     # X . #         @         y ] [ y b _ , { } |   -  ...- O X o @ % $     @ @ X   ",
"5 $   X       X . . O   .       @ @ o         @ $ X o , #               > X.Y o.O.e +.@.#.: , i - s v M   X   . . . 1 ,       l ",
"$             X   %   %   # # X               @ @ X   % X . .           o $.H f ^ ! 9 < u 2 %.- 9 u X , > #   n  .4 ; b   O ; u ",
"                    @   @ @ $ X               #         o o X           o &.! *.H =.& a 2 g 1 -.- 3 3 A ; - 6 H w 9 ^ p 4 ; ;.@ ",
"                            X           . .   X           @ @             k r :.w 7 3   u D U r O 1 > 4 >.3 y u 9   D ,., $ X   ",
"              .             X         O     $     X                   o . > M < <.1.5 9 m 2., O ; 3 2 _ b 1 u e . . X     $     ",
"    X     .                                                             o u X . X 3.4.! , 5.w ; $.~ 6.7.m u , .   X X   X   X   ",
"                                                                                X w f : 1 u ( > r 8.^ =.: 1 . . X X     X   X   ",
"                              . . .           .                         X     o h > 9.b 5 3 : 3.f M 5 r 1 @ @ o # h #           ",
"                          . . .   X   .       . #     . .                     %   1 0.q.1 } w.k 0.q.2 -     ; :     j X         ",
"                        . O . . X   o       .   X . .     #                     o , e., r.t.y.4 u.i.i.i.1 , : u @ s X X         ",
"                                X .                   X     #   . X             % $ w @.X p.1 a.2 1 ` s.' > 3 - _ - X X         ",
"                            % @                           O X   $ . . X       O           d.f.o.5   w.>...1 : , s 9 @           ",
"                                                        o , $ X   5 +   X       X     X     t.g.1.h.' g.r ' u , $               ",
"          #           o . . #                             $   X   # o                   2 W n R 1 > 6.w.j.9 ,                   ",
"  . .   o # X         O     X X                             X     #               @   O y , k.w - 5 d.: w.2 - b X               ",
"    X       X           @ o X               O                                         O ; , . w 9 $ D < e , M $               X ",
"    X       X             o X X               @         X   X   o                     y 1 X X @ $   % w o u r.X                 ",
"    X   O X X           .     X                         X     . o                     % w $ X @       k : e $ . .           . # ",
"          X           O . #         o                   .                               w , X         % } M   o X X           X ",
"                    o o   # # X                 .           .                             k b #         w $   o . #       .     ",
"          X         o       X X               o X     . .                             . . > 5 , #     o   X o O     #         . ",
"          X         O     @ X X                       O ,   . X                   . .     3 X @ $             % @             X ",
"          . X         $ @ % : X             .         @ @     X                     X   o 5 F                     % X         X ",
"          @ $       $ X   O : $               $           o X   @   .       o     @   O   $ X                       @     .   X "
};
